{"title":"Need for Speed 2014 HDRip x264 AC3-MiLLENiUM","uid":10530044,"size":1175726591,"categoryP":"video","categoryS":"movies","magnet":"?xt=urn:btih:bc229026a078071ccdd544573f45e2c31fba4450&amp;dn=Need+for+Speed+2014+HDRip+x264+AC3-MiLLENiUM&amp;tr=udp%3A%2F%2Ftracker.openbittorrent.com%3A80&amp;tr=udp%3A%2F%2Fopen.demonii.com%3A1337&amp;tr=udp%3A%2F%2Ftracker.coppersurfer.tk%3A6969&amp;tr=udp%3A%2F%2Fexodus.desync.com%3A6969","seeders":1,"leechers":1,"uploader":"Thhaque","files":-1,"time":1405096423,"description":"Need for Speed 2014 HDRip x264 AC3-MiLLENiUM \n\n\n\nGeneral\n\n\n\nSource...............: 1080p WEBDL-A Friend [THANKS]\n\nIMDb Information.... : http://www.imdb.com/title/tt2369135/\n\nSample Included......: yes\n\n\n\nNOTES: Nice source used, NO SUBS, normalised and bass boosted the audio. The video we corrected white balance, lowered the yellow tone, added a bit of saturation and sharpness, Enjoy Cheers. \n\n\n\nGeneral\n\nComplete name : Need for Speed 2014 HDRip x264 AC3-MiLLENiUM.mkv\n\nFormat : Matroska\n\nFormat version : Version 2\n\nFile size : 1.06 GiB\n\nDuration : 2h 5mn\n\nOverall bit rate mode : Constant\n\nOverall bit rate : 1 206 Kbps\n\nEncoded date : UTC 2014-07-11 13:03:28\n\nWriting application : mkvmerge v7.0.0 ('Where We Going') 32bit built on Jun 9 2014 15:08:34\n\nWriting library : libebml v1.3.0 + libmatroska v1.4.1\n\n\n\nVideo\n\nID : 1\n\nFormat : AVC\n\nFormat/Info : Advanced Video Codec\n\nFormat profile : &lt;a class=&quot;__cf_email__&quot; href=&quot;/cdn-cgi/l/email-protection&quot; data-cfemail=&quot;337b5a545b737f001d03&quot;&gt;[email&amp;#160;protected]&lt;/a&gt;&lt;script cf-hash='f9e31' type=&quot;text/javascript&quot;&gt;\n/* &lt;![CDATA[ */!function(){try{var t=&quot;currentScript&quot;in document?document.currentScript:function(){for(var t=document.getElementsByTagName(&quot;script&quot;),e=t.length;e--;)if(t[e].getAttribute(&quot;cf-hash&quot;))return t[e]}();if(t&amp;&amp;t.previousSibling){var e,r,n,i,c=t.previousSibling,a=c.getAttribute(&quot;data-cfemail&quot;);if(a){for(e=&quot;&quot;,r=parseInt(a.substr(0,2),16),n=2;a.length-n;n+=2)i=parseInt(a.substr(n,2),16)^r,e+=String.fromCharCode(i);e=document.createTextNode(e),c.parentNode.replaceChild(e,c)}}}catch(u){}}();/* ]]&gt; */&lt;/script&gt;\n\nFormat settings, CABAC : Yes\n\nFormat settings, ReFrames : 3 frames\n\nCodec ID : V_MPEG4/ISO/AVC\n\nDuration : 2h 5mn\n\nBit rate mode : Constant\n\nBit rate : 768 Kbps\n\nWidth : 720 pixels\n\nHeight : 304 pixels\n\nDisplay aspect ratio : 2.35:1\n\nFrame rate mode : Constant\n\nFrame rate : 30.000 fps\n\nStandard : NTSC\n\nColor space : YUV\n\nChroma subsampling : 4:2:0\n\nBit depth : 8 bits\n\nScan type : Progressive\n\nBits/(Pixel*Frame) : 0.117\n\nStream size : 658 MiB (61%)\n\nLanguage : English\n\nDefault : Yes\n\nForced : No\n\nColor primaries : BT.601 NTSC\n\nTransfer characteristics : BT.601\n\nMatrix coefficients : BT.601\n\n\n\nAudio\n\nID : 2\n\nFormat : AC-3\n\nFormat/Info : Audio Coding 3\n\nMode extension : CM (complete main)\n\nFormat settings, Endianness : Big\n\nCodec ID : A_AC3\n\nDuration : 2h 5mn\n\nBit rate mode : Constant\n\nBit rate : 448 Kbps\n\nChannel(s) : 6 channels\n\nChannel positions : Front: L C R, Side: L R, LFE\n\nSampling rate : 48.0 KHz\n\nBit depth : 16 bits\n\nCompression mode : Lossy\n\nStream size : 402 MiB (37%)\n\nLanguage : English\n\nDefault : Yes\n\nForced : No\n\n\n\nPlot\n\n\n\nFresh from prison, a street racer who was framed by a wealthy business associate joins a cross country race with revenge in mind. His ex-partner, learning of the plan, places a massive bounty on his head as the race begins. \n\n\n\nScreenshots\n &lt;a href=&quot;\nhttp://i.imgur.com/itbcjAH.jpg&quot; rel=&quot;nofollow&quot; target=&quot;_NEW&quot;&gt;\nhttp://i.imgur.com/itbcjAH.jpg&lt;/a&gt;\n &lt;a href=&quot;\nhttp://i.imgur.com/F3WMySe.jpg&quot; rel=&quot;nofollow&quot; target=&quot;_NEW&quot;&gt;\nhttp://i.imgur.com/F3WMySe.jpg&lt;/a&gt;\n &lt;a href=&quot;\nhttp://i.imgur.com/VIGkMYY.jpg&quot; rel=&quot;nofollow&quot; target=&quot;_NEW&quot;&gt;\nhttp://i.imgur.com/VIGkMYY.jpg&lt;/a&gt;\n &lt;a href=&quot;\nhttp://i.imgur.com/sNI2OSD.jpg&quot; rel=&quot;nofollow&quot; target=&quot;_NEW&quot;&gt;\nhttp://i.imgur.com/sNI2OSD.jpg&lt;/a&gt;\n &lt;a href=&quot;\nhttp://i.imgur.com/ItbYdPo.jpg&quot; rel=&quot;nofollow&quot; target=&quot;_NEW&quot;&gt;\nhttp://i.imgur.com/ItbYdPo.jpg&lt;/a&gt;","torrent":{"xt":"urn:btih:bc229026a078071ccdd544573f45e2c31fba4450","amp;dn":"Need+for+Speed+2014+HDRip+x264+AC3-MiLLENiUM","amp;tr":["udp%3A%2F%2Ftracker.openbittorrent.com%3A80","udp%3A%2F%2Fopen.demonii.com%3A1337","udp%3A%2F%2Ftracker.coppersurfer.tk%3A6969","udp%3A%2F%2Fexodus.desync.com%3A6969"],"infoHash":"bc229026a078071ccdd544573f45e2c31fba4450","infoHashBuffer":{"type":"Buffer","data":[188,34,144,38,160,120,7,28,205,213,68,87,63,69,226,195,31,186,68,80]},"announce":[],"urlList":[]}}